<?xml version="1.0" encoding="utf-8"?>
<!-- Generator: Adobe Illustrator 16.0.0, SVG Export Plug-In . SVG Version: 6.00 Build 0)  -->
<!DOCTYPE svg PUBLIC "-//W3C//DTD SVG 1.1//EN" "http://www.w3.org/Graphics/SVG/1.1/DTD/svg11.dtd">
<svg version="1.1" id="圖層_1" xmlns="http://www.w3.org/2000/svg" xmlns:xlink="http://www.w3.org/1999/xlink" x="0px" y="0px"
	 width="167.948px" height="212.069px" viewBox="0 0 167.948 212.069" enable-background="new 0 0 167.948 212.069"
	 xml:space="preserve">
<g>
	<path fill="#E6AF2E" d="M152.004,39.54l-1.109,8.137l-6.858,50.211l-11.23,82.227l-2.813,20.586
		c-0.442,3.25-3.219,5.674-6.499,5.673H48.598c-3.274,0.001-6.049-2.412-6.5-5.655l-2.859-20.604L27.815,97.887l-6.978-50.248
		l-1.123-8.083c-0.499-3.589,2.004-6.901,5.591-7.401c0.3-0.041,0.603-0.063,0.904-0.063h119.295
		c3.624,0.001,6.561,2.939,6.56,6.564C152.064,38.952,152.044,39.247,152.004,39.54z"/>
	<path opacity="0.1" enable-background="new    " d="M144.549,20.602v4.93c0,3.623-2.938,6.561-6.561,6.561H34.114
		c-3.624,0-6.56-2.938-6.56-6.561v-4.916C66.465,24.321,105.639,24.317,144.549,20.602z"/>
	<path fill="#F5D061" d="M161.389,42.985c-50.076,5.466-100.599,5.466-150.674,0c-3.622,0-6.559-2.938-6.559-6.559l0,0v-8.668
		c0-3.622,2.937-6.559,6.559-6.559l0,0c50.035,6.151,100.637,6.151,150.674,0c3.622,0,6.56,2.937,6.56,6.559v8.668
		C167.948,40.047,165.011,42.985,161.389,42.985z"/>
	<path fill="#F5D061" d="M135.89,177.124H35.037c-1.869,0-3.462-1.36-3.756-3.207l-10.895-68.64
		c-0.33-2.075,1.086-4.023,3.159-4.353c0.198-0.032,0.396-0.048,0.596-0.048h123.369c2.1,0,3.803,1.703,3.803,3.803
		c0,0.214-0.017,0.427-0.054,0.636l-11.62,68.641C139.328,175.786,137.745,177.124,135.89,177.124z"/>
	<path fill="#F5D061" d="M32.833,12.385h103.874c3.625,0,6.562,2.937,6.562,6.561v8.666c0,3.622-2.937,6.559-6.562,6.559H32.833
		c-3.623,0-6.56-2.937-6.56-6.559v-8.666C26.273,15.322,29.21,12.385,32.833,12.385z"/>
	<path fill="#FF6666" d="M117.716,142.004c1.247,0.229,2.073,1.424,1.846,2.672c-0.08,0.436-0.283,0.838-0.588,1.162
		c-5.466,5.826-18.721,17.977-34.203,17.977c-15.483,0-28.737-12.15-34.204-17.977c-0.869-0.924-0.825-2.377,0.098-3.246
		c0.322-0.305,0.726-0.508,1.161-0.588C73.606,137.998,95.935,137.998,117.716,142.004L117.716,142.004z"/>
	<path fill="#FFFFFF" d="M102.002,145.639c1.253,0.199,2.105,1.377,1.906,2.629c-0.077,0.484-0.308,0.932-0.658,1.275
		c-3.701,3.609-10.592,9.053-18.479,9.053c-7.889,0-14.779-5.443-18.48-9.053c-0.904-0.889-0.917-2.342-0.028-3.246
		c0.345-0.35,0.792-0.582,1.276-0.658C78.948,143.743,90.593,143.743,102.002,145.639L102.002,145.639z"/>
	<circle fill="#2F2E41" cx="57.887" cy="72.635" r="15.165"/>
	<circle fill="#2F2E41" cx="111.653" cy="72.635" r="15.165"/>
	<circle fill="#FFFFFF" cx="57.198" cy="72.635" r="4.136"/>
	<circle fill="#FFFFFF" cx="63.402" cy="64.708" r="1.723"/>
	<circle fill="#FFFFFF" cx="111.653" cy="72.635" r="4.136"/>
	<circle fill="#FFFFFF" cx="117.856" cy="64.708" r="1.723"/>
</g>
</svg>
